<?xml version="1.0" standalone="no"?>
<!DOCTYPE svg PUBLIC "-//W3C//DTD SVG 20010904//EN"
 "http://www.w3.org/TR/2001/REC-SVG-20010904/DTD/svg10.dtd">
<svg version="1.0" xmlns="http://www.w3.org/2000/svg"
 width="512.000000pt" height="512.000000pt" viewBox="0 0 512.000000 512.000000"
 preserveAspectRatio="xMidYMid meet">
<metadata>
Created by potrace 1.14, written by Peter Selinger 2001-2017
</metadata>
<g transform="translate(0.000000,512.000000) scale(0.100000,-0.100000)"
fill="#000000" stroke="none">
<path d="M755 3599 c-155 -80 -332 -278 -423 -472 -33 -69 -79 -214 -88 -277
-3 -19 -7 -42 -9 -50 -10 -37 -18 -122 -20 -210 -4 -255 77 -409 224 -427 120
-14 196 47 460 372 107 133 225 257 301 317 47 37 169 108 187 108 6 0 2 -24
-9 -56 -24 -72 -44 -219 -42 -309 1 -67 12 -203 18 -235 1 -8 6 -37 10 -65 28
-184 142 -554 232 -755 l24 -55 195 1 c107 0 198 4 202 8 11 11 -28 75 -61 99
-40 28 -118 32 -168 7 l-37 -18 -19 42 c-27 56 -78 203 -86 246 -3 19 -8 46
-11 60 -3 14 -8 43 -11 65 -6 40 -5 40 48 69 56 31 143 90 168 116 9 8 30 28
47 44 l31 28 39 -43 c21 -23 49 -54 63 -69 14 -15 61 -67 105 -116 44 -49 89
-98 100 -110 11 -11 51 -56 90 -100 38 -43 77 -86 85 -94 8 -8 53 -58 100
-110 47 -52 91 -101 99 -109 11 -13 179 -15 1157 -15 845 -1 1145 2 1148 10
12 32 -13 140 -39 168 -42 46 -98 33 -199 -47 -38 -30 -41 -31 -135 -28 -53 2
-112 4 -131 6 -88 7 -176 17 -190 20 -8 2 -37 7 -65 10 -110 14 -461 97 -477
113 -4 4 15 8 43 10 123 7 321 98 428 198 l55 51 -56 84 c-105 160 -218 281
-348 375 l-51 37 -56 -13 c-31 -7 -72 -18 -92 -24 l-35 -13 -74 74 c-41 40
-103 93 -138 118 -61 42 -182 105 -232 120 -23 7 -23 5 -21 -47 5 -86 44 -177
139 -319 l58 -85 -69 -63 c-38 -34 -102 -106 -142 -160 -71 -95 -74 -98 -93
-82 -12 9 -36 27 -55 41 -60 42 -204 193 -241 250 -19 30 -59 102 -88 160 -54
105 -148 253 -190 300 -12 14 -32 36 -44 50 -28 33 -130 119 -181 153 -94 62
-263 120 -385 133 -63 6 -229 6 -280 -1 -19 -2 -64 -7 -100 -10 -114 -9 -174
-16 -200 -22 -70 -17 -148 -96 -282 -286 -229 -325 -290 -399 -367 -449 -108
-68 -208 -4 -246 157 -32 140 18 403 102 537 12 21 23 40 23 43 0 6 85 123
127 177 82 103 201 195 302 234 81 32 106 57 95 98 -18 72 -116 88 -219 35z"/>
</g>
</svg>
